<?xml version="1.0" encoding="utf-8"?>
<svg width="100%" height="100%" viewBox="0 0 24 24" fill="none" xmlns="http://www.w3.org/2000/svg">
<path fill-rule="evenodd" clip-rule="evenodd" d="M10.3249 7.82403C10.5848 7.94892 10.75 8.2117 10.75 8.50001V15.5C10.75 15.9142 10.4142 16.25 10 16.25C9.58581 16.25 9.25003 15.9142 9.25003 15.5V10.0605L7.96855 11.0857C7.6451 11.3444 7.17313 11.292 6.91438 10.9685C6.65562 10.6451 6.70806 10.1731 7.03151 9.91436L9.53151 7.91436C9.75663 7.73425 10.0651 7.69914 10.3249 7.82403ZM14.25 9.25001C13.6977 9.25001 13.25 9.69772 13.25 10.25V13.75C13.25 14.3023 13.6977 14.75 14.25 14.75C14.8023 14.75 15.25 14.3023 15.25 13.75V10.25C15.25 9.69772 14.8023 9.25001 14.25 9.25001ZM11.75 10.25C11.75 8.8693 12.8693 7.75001 14.25 7.75001C15.6307 7.75001 16.75 8.8693 16.75 10.25V13.75C16.75 15.1307 15.6307 16.25 14.25 16.25C12.8693 16.25 11.75 15.1307 11.75 13.75V10.25Z" fill="currentColor"/>
<path fill-rule="evenodd" clip-rule="evenodd" d="M12.676 1.67511C12.5511 1.41526 12.2883 1.25 12 1.25C11.2647 1.25 10.5459 1.32394 9.8508 1.46503C4.94367 2.46112 1.25 6.79837 1.25 12C1.25 17.9371 6.06294 22.75 12 22.75C17.9371 22.75 22.75 17.9371 22.75 12C22.75 7.59065 20.0954 3.80298 16.3003 2.14482C15.9207 1.97898 15.4786 2.15224 15.3127 2.53181C15.1469 2.91137 15.3202 3.35351 15.6997 3.51935C18.9682 4.94742 21.25 8.20808 21.25 12C21.25 17.1086 17.1086 21.25 12 21.25C6.89137 21.25 2.75 17.1086 2.75 12C2.75 7.84953 5.48421 4.33622 9.25 3.16544V4.5C9.25 4.81852 9.45118 5.10229 9.75175 5.20772C10.0523 5.31315 10.3867 5.21724 10.5857 4.96852L12.5857 2.46852C12.7658 2.24339 12.8009 1.93496 12.676 1.67511Z" fill="currentColor"/>
</svg>