<?xml version="1.0" encoding="utf-8"?>
<svg width="100%" height="100%" viewBox="0 0 24 24" fill="none" xmlns="http://www.w3.org/2000/svg">
<path d="M7 14L8.79689 11.8437C9.50894 10.9893 9.86496 10.562 10.3333 10.562C10.8017 10.562 11.1577 10.9893 11.8698 11.8437L12.1302 12.1563C12.8423 13.0107 13.1983 13.438 13.6667 13.438C14.135 13.438 14.4911 13.0107 15.2031 12.1563L17 10" stroke="currentColor" stroke-width="1.5" stroke-linecap="round"/>
<path d="M22 12C22 16.714 22 19.0711 20.5355 20.5355C19.0711 22 16.714 22 12 22C7.28595 22 4.92893 22 3.46447 20.5355C2 19.0711 2 16.714 2 12C2 7.28595 2 4.92893 3.46447 3.46447C4.92893 2 7.28595 2 12 2C16.714 2 19.0711 2 20.5355 3.46447C21.5093 4.43821 21.8356 5.80655 21.9449 8" stroke="currentColor" stroke-width="1.5" stroke-linecap="round"/>
</svg>