<?xml version="1.0" encoding="utf-8"?>
<!-- Uploaded to: SVG Repo, www.svgrepo.com, Generator: SVG Repo Mixer Tools -->
<svg width="800px" height="800px" viewBox="0 0 24 24" xmlns="http://www.w3.org/2000/svg" xmlns:xlink="http://www.w3.org/1999/xlink">
  <defs>
    <path id="poly-a" d="M2,6 C0.8954305,6 0,5.1045695 0,4 C0,2.8954305 0.8954305,2 2,2 C3.1045695,2 4,2.8954305 4,4 C4,5.1045695 3.1045695,6 2,6 Z M15,4 C13.8954305,4 13,3.1045695 13,2 C13,0.8954305 13.8954305,0 15,0 C16.1045695,0 17,0.8954305 17,2 C17,3.1045695 16.1045695,4 15,4 Z M8,12 C6.8954305,12 6,11.1045695 6,10 C6,8.8954305 6.8954305,8 8,8 C9.1045695,8 10,8.8954305 10,10 C10,11.1045695 9.1045695,12 8,12 Z"/>
    <path id="poly-c" d="M6.08201662,9.79899323 C5.74635331,9.92884218 5.38149237,10.0000498 5,10.0000498 C4.53685347,10.0000498 4.09821982,9.89509761 3.70658455,9.70767878 L1.70710678,11.7071565 C1.31658249,12.0976808 0.683417511,12.0976808 0.292893219,11.7071565 C-0.0976310729,11.3166323 -0.0976310729,10.6834673 0.292893219,10.292943 L2.29237099,8.29346521 C2.10495216,7.90182994 2,7.4631963 2,7.00004976 C2,5.34319551 3.34314575,4.00004976 5,4.00004976 C6.65685425,4.00004976 8,5.34319551 8,7.00004976 C8,7.5452903 7.85454428,8.05655783 7.60031978,8.49716542 L9.32583598,10.5102677 C9.80401688,10.1880987 10.3800479,10.0000498 11,10.0000498 C11.5483053,10.0000498 12.0622546,10.1471453 12.5045389,10.4040273 L15.4478539,6.5777177 C15.1639137,6.11937064 15,5.57885225 15,5.00004976 C15,3.34319551 16.3431458,2.00004976 18,2.00004976 C18.3027295,2.00004976 18.5949862,2.04488961 18.8704906,2.12829001 L20.207376,0.390339002 C20.54411,-0.047415139 21.1719566,-0.129308181 21.6097108,0.207425774 C22.0474649,0.544159729 22.1293579,1.17200638 21.792624,1.60976052 L20.4817036,3.31395701 C20.8088053,3.7944735 21,4.37493367 21,5.00004976 C21,6.65690401 19.6568542,8.00004976 18,8.00004976 C17.6518123,8.00004976 17.3174788,7.94073245 17.0065537,7.83165187 L13.8200089,11.9741602 C13.9364733,12.2942267 14,12.6397195 14,13.0000498 C14,14.656904 12.6568542,16.0000498 11,16.0000498 C9.34314575,16.0000498 8,14.656904 8,13.0000498 C8,12.7127261 8.04039217,12.4348366 8.11580792,12.1717498 L6.08201662,9.79899323 Z M18,6.00004976 C18.5522847,6.00004976 19,5.55233451 19,5.00004976 C19,4.44776501 18.5522847,4.00004976 18,4.00004976 C17.4477153,4.00004976 17,4.44776501 17,5.00004976 C17,5.55233451 17.4477153,6.00004976 18,6.00004976 Z M11,14.0000498 C11.5522847,14.0000498 12,13.5523345 12,13.0000498 C12,12.447765 11.5522847,12.0000498 11,12.0000498 C10.4477153,12.0000498 10,12.447765 10,13.0000498 C10,13.5523345 10.4477153,14.0000498 11,14.0000498 Z M5,8.00004976 C5.55228475,8.00004976 6,7.55233451 6,7.00004976 C6,6.44776501 5.55228475,6.00004976 5,6.00004976 C4.44771525,6.00004976 4,6.44776501 4,7.00004976 C4,7.55233451 4.44771525,8.00004976 5,8.00004976 Z"/>
  </defs>
  <g fill="none" fill-rule="evenodd" transform="translate(1 4)">
    <g transform="translate(3 3)">
      <mask id="poly-b" fill="#ffffff">
        <use xlink:href="#poly-a"/>
      </mask>
      <use fill="#D8D8D8" xlink:href="#poly-a"/>
      <g fill="#FFA0A0" mask="url(#poly-b)">
        <rect width="24" height="24" transform="translate(-4 -7)"/>
      </g>
    </g>
    <mask id="poly-d" fill="#ffffff">
      <use xlink:href="#poly-c"/>
    </mask>
    <use fill="#000000" fill-rule="nonzero" xlink:href="#poly-c"/>
    <g fill="#7600FF" mask="url(#poly-d)">
      <rect width="24" height="24" transform="translate(-1 -4)"/>
    </g>
  </g>
</svg>