<?xml version="1.0" encoding="utf-8"?>
<!-- Uploaded to: SVG Repo, www.svgrepo.com, Generator: SVG Repo Mixer Tools -->
<svg width="800px" height="800px" viewBox="0 0 24 24" xmlns="http://www.w3.org/2000/svg" xmlns:xlink="http://www.w3.org/1999/xlink">
  <defs>
    <path id="cookie-a" d="M6,9 C5.44771525,9 5,8.55228475 5,8 C5,7.44771525 5.44771525,7 6,7 C6.55228475,7 7,7.44771525 7,8 C7,8.55228475 6.55228475,9 6,9 Z M0.5,5 C0.776142375,5 1,5.22385763 1,5.5 C1,5.77614237 0.776142375,6 0.5,6 C0.223857625,6 0,5.77614237 0,5.5 C0,5.22385763 0.223857625,5 0.5,5 Z M1.5,0 C1.77614237,0 2,0.223857625 2,0.5 C2,0.776142375 1.77614237,1 1.5,1 C1.22385763,1 1,0.776142375 1,0.5 C1,0.223857625 1.22385763,0 1.5,0 Z"/>
    <path id="cookie-c" d="M16.8992102,14.9839236 C14.7272404,14.8015227 12.9908067,13.088137 12.7726677,10.9265249 C10.116756,10.8076787 8,8.61683725 8,5.93160095 C8,4.83650549 8.35205437,3.82363673 8.94915779,3 C5.02749115,3.51454809 2,6.8695203 2,10.931601 C2,15.3498789 5.581722,18.931601 10,18.931601 C12.9394797,18.931601 15.5086798,17.3462452 16.8992102,14.9839236 Z M18.6227822,15.9984676 C16.8387419,19.0293088 13.583442,20.931601 10,20.931601 C4.4771525,20.931601 0,16.4544484 0,10.931601 C0,5.89735407 3.73996215,1.66633856 8.6889748,1.01699601 C10.4293224,0.788651127 11.5986551,2.75278519 10.5684097,4.17389234 C10.2003223,4.68162738 10,5.2888805 10,5.93160095 C10,7.53739843 11.265248,8.85706984 12.8620738,8.92852431 C13.8538041,8.97290207 14.6628867,9.73800888 14.762561,10.7257149 C14.8842704,11.9317746 15.8571673,12.8893732 17.06658,12.990939 C18.5347344,13.1142339 19.3701575,14.7287789 18.6227822,15.9984676 Z M10,18 C8.34314575,18 7,16.6568542 7,15 C7,13.3431458 8.34314575,12 10,12 C11.6568542,12 13,13.3431458 13,15 C13,16.6568542 11.6568542,18 10,18 Z M10,16 C10.5522847,16 11,15.5522847 11,15 C11,14.4477153 10.5522847,14 10,14 C9.44771525,14 9,14.4477153 9,15 C9,15.5522847 9.44771525,16 10,16 Z M4.5,14 C3.67157288,14 3,13.3284271 3,12.5 C3,11.6715729 3.67157288,11 4.5,11 C5.32842712,11 6,11.6715729 6,12.5 C6,13.3284271 5.32842712,14 4.5,14 Z M4.5,12 C4.22385763,12 4,12.2238576 4,12.5 C4,12.7761424 4.22385763,13 4.5,13 C4.77614237,13 5,12.7761424 5,12.5 C5,12.2238576 4.77614237,12 4.5,12 Z M5.5,9 C4.67157288,9 4,8.32842712 4,7.5 C4,6.67157288 4.67157288,6 5.5,6 C6.32842712,6 7,6.67157288 7,7.5 C7,8.32842712 6.32842712,9 5.5,9 Z M5.5,7 C5.22385763,7 5,7.22385763 5,7.5 C5,7.77614237 5.22385763,8 5.5,8 C5.77614237,8 6,7.77614237 6,7.5 C6,7.22385763 5.77614237,7 5.5,7 Z"/>
  </defs>
  <g fill="none" fill-rule="evenodd" transform="translate(3 1)">
    <g transform="translate(4 7)">
      <mask id="cookie-b" fill="#ffffff">
        <use xlink:href="#cookie-a"/>
      </mask>
      <use fill="#D8D8D8" fill-rule="nonzero" xlink:href="#cookie-a"/>
      <g fill="#FFA0A0" mask="url(#cookie-b)">
        <rect width="24" height="24" transform="translate(-7 -8)"/>
      </g>
    </g>
    <mask id="cookie-d" fill="#ffffff">
      <use xlink:href="#cookie-c"/>
    </mask>
    <use fill="#000000" fill-rule="nonzero" xlink:href="#cookie-c"/>
    <g fill="#7600FF" mask="url(#cookie-d)">
      <rect width="24" height="24" transform="translate(-3 -1)"/>
    </g>
  </g>
</svg>