<svg width="177" height="33" viewBox="0 0 177 33" fill="none" xmlns="http://www.w3.org/2000/svg">
<path d="M28.28 9.52C31 9.52 33.1867 10.36 34.84 12.04C36.52 13.6933 37.36 16.0133 37.36 19V32H31.76V19.76C31.76 18.0267 31.32 16.7067 30.44 15.8C29.56 14.8667 28.36 14.4 26.84 14.4C25.32 14.4 24.1067 14.8667 23.2 15.8C22.32 16.7067 21.88 18.0267 21.88 19.76V32H16.28V19.76C16.28 18.0267 15.84 16.7067 14.96 15.8C14.08 14.8667 12.88 14.4 11.36 14.4C9.81333 14.4 8.58667 14.8667 7.68 15.8C6.8 16.7067 6.36 18.0267 6.36 19.76V32H0.76V9.84H6.36V12.52C7.08 11.5867 8 10.8533 9.12 10.32C10.2667 9.78666 11.52 9.52 12.88 9.52C14.6133 9.52 16.16 9.89333 17.52 10.64C18.88 11.36 19.9333 12.4 20.68 13.76C21.4 12.48 22.44 11.4533 23.8 10.68C25.1867 9.90667 26.68 9.52 28.28 9.52ZM44.7141 7.2C43.7274 7.2 42.9007 6.89333 42.2341 6.28C41.5941 5.64 41.2741 4.85333 41.2741 3.92C41.2741 2.98667 41.5941 2.21333 42.2341 1.6C42.9007 0.959998 43.7274 0.639998 44.7141 0.639998C45.7007 0.639998 46.5141 0.959998 47.1541 1.6C47.8207 2.21333 48.1541 2.98667 48.1541 3.92C48.1541 4.85333 47.8207 5.64 47.1541 6.28C46.5141 6.89333 45.7007 7.2 44.7141 7.2ZM47.4741 9.84V32H41.8741V9.84H47.4741ZM64.4469 32L59.8869 25.12L55.8469 32H49.8469L57.0869 20.88L49.7669 9.84H56.0869L60.6069 16.68L64.6869 9.84H70.6869L63.4069 20.88L70.7669 32H64.4469ZM103.728 9.84L97.2484 32H91.2084L87.1684 16.52L83.1284 32H77.0484L70.5284 9.84H76.2084L80.1284 26.72L84.3684 9.84H90.2884L94.4484 26.68L98.3684 9.84H103.728ZM104.518 20.84C104.518 18.6 104.958 16.6133 105.838 14.88C106.745 13.1467 107.958 11.8133 109.478 10.88C111.025 9.94667 112.745 9.48 114.638 9.48C116.292 9.48 117.732 9.81333 118.958 10.48C120.212 11.1467 121.212 11.9867 121.958 13V9.84H127.598V32H121.958V28.76C121.238 29.8 120.238 30.6667 118.958 31.36C117.705 32.0267 116.252 32.36 114.598 32.36C112.732 32.36 111.025 31.88 109.478 30.92C107.958 29.96 106.745 28.6133 105.838 26.88C104.958 25.12 104.518 23.1067 104.518 20.84ZM121.958 20.92C121.958 19.56 121.692 18.4 121.158 17.44C120.625 16.4533 119.905 15.7067 118.998 15.2C118.092 14.6667 117.118 14.4 116.078 14.4C115.038 14.4 114.078 14.6533 113.198 15.16C112.318 15.6667 111.598 16.4133 111.038 17.4C110.505 18.36 110.238 19.5067 110.238 20.84C110.238 22.1733 110.505 23.3467 111.038 24.36C111.598 25.3467 112.318 26.1067 113.198 26.64C114.105 27.1733 115.065 27.44 116.078 27.44C117.118 27.44 118.092 27.1867 118.998 26.68C119.905 26.1467 120.625 25.4 121.158 24.44C121.692 23.4533 121.958 22.28 121.958 20.92ZM141.508 26.84L147.108 9.84H153.068L144.868 32H138.068L129.908 9.84H135.908L141.508 26.84ZM176.013 20.44C176.013 21.24 175.96 21.96 175.853 22.6H159.653C159.786 24.2 160.346 25.4533 161.333 26.36C162.32 27.2667 163.533 27.72 164.973 27.72C167.053 27.72 168.533 26.8267 169.413 25.04H175.453C174.813 27.1733 173.586 28.9333 171.773 30.32C169.96 31.68 167.733 32.36 165.093 32.36C162.96 32.36 161.04 31.8933 159.333 30.96C157.653 30 156.333 28.6533 155.373 26.92C154.44 25.1867 153.973 23.1867 153.973 20.92C153.973 18.6267 154.44 16.6133 155.373 14.88C156.306 13.1467 157.613 11.8133 159.293 10.88C160.973 9.94667 162.906 9.48 165.093 9.48C167.2 9.48 169.08 9.93333 170.733 10.84C172.413 11.7467 173.706 13.04 174.613 14.72C175.546 16.3733 176.013 18.28 176.013 20.44ZM170.213 18.84C170.186 17.4 169.666 16.2533 168.653 15.4C167.64 14.52 166.4 14.08 164.933 14.08C163.546 14.08 162.373 14.5067 161.413 15.36C160.48 16.1867 159.906 17.3467 159.693 18.84H170.213Z" fill="#212121"/>
</svg>
